<?xml version="1.0" standalone="no"?>
<!DOCTYPE svg PUBLIC "-//W3C//DTD SVG 20010904//EN"
 "http://www.w3.org/TR/2001/REC-SVG-20010904/DTD/svg10.dtd">
<svg version="1.0" xmlns="http://www.w3.org/2000/svg"
 width="260.000000pt" height="260.000000pt" viewBox="0 0 260.000000 260.000000"
 preserveAspectRatio="xMidYMid meet">
<metadata>
Created by potrace 1.11, written by Peter Selinger 2001-2013
</metadata>
<g transform="translate(0.000000,260.000000) scale(0.100000,-0.100000)"
fill="#000000" stroke="none">
<path d="M2067 2586 c-4 -9 -1 -18 5 -22 7 -5 8 -2 3 6 -5 9 -4 11 3 6 7 -4
12 -12 12 -18 0 -6 8 -17 18 -25 9 -8 11 -11 3 -7 -9 5 -12 3 -7 -4 4 -7 15
-12 24 -12 15 0 15 -2 2 -10 -12 -7 -11 -9 6 -8 15 2 20 7 16 21 -3 10 1 23 9
28 10 6 11 9 1 9 -8 0 -10 8 -7 23 6 21 3 23 -38 25 -32 2 -46 -1 -50 -12z"/>
<path d="M941 2321 c-13 -12 -20 -25 -15 -32 5 -8 3 -9 -6 -4 -10 6 -12 3 -8
-13 4 -12 2 -25 -3 -28 -5 -3 -7 -10 -3 -15 3 -5 0 -16 -6 -24 -10 -12 -10
-15 1 -15 9 0 10 -3 4 -8 -6 -4 -10 -14 -10 -22 1 -8 -1 -19 -4 -25 -11 -21
-10 -55 2 -49 7 4 8 3 4 -1 -11 -13 -37 -15 -37 -4 0 6 -5 7 -12 3 -7 -4 -51
-8 -98 -9 -47 -1 -91 -5 -98 -9 -7 -4 -12 -2 -12 6 0 10 -2 10 -9 -1 -5 -7
-14 -10 -20 -7 -6 4 -14 0 -17 -8 -3 -9 -11 -13 -16 -10 -6 4 -8 -2 -3 -15 4
-13 2 -21 -6 -21 -8 0 -8 -4 -1 -12 5 -7 8 -25 6 -41 -2 -18 1 -25 8 -21 7 5
8 2 2 -7 -12 -20 -14 -39 -3 -39 5 0 9 -5 9 -11 0 -5 -5 -7 -12 -3 -7 5 -8 3
-3 -7 5 -7 10 -24 11 -37 3 -22 0 -24 -32 -20 -29 3 -35 1 -40 -19 -4 -13 -9
-23 -13 -23 -4 0 -8 -14 -9 -31 -1 -17 -7 -40 -13 -51 -25 -46 -7 -109 29
-103 9 1 20 -3 24 -9 4 -6 13 -11 20 -11 7 -1 26 -5 41 -9 22 -7 31 -4 42 10
8 11 13 24 10 31 -2 6 4 14 13 18 14 5 14 7 2 15 -13 8 -13 11 -1 22 12 11 12
10 6 -2 -7 -12 -6 -13 6 -4 8 5 19 10 24 10 17 -2 55 -32 48 -39 -3 -4 1 -7
10 -7 9 0 17 -4 17 -8 0 -5 11 -15 25 -22 14 -8 24 -19 21 -26 -3 -8 2 -11 13
-9 11 2 17 -4 18 -16 1 -15 -3 -19 -18 -14 -11 4 -19 2 -19 -4 0 -6 -6 -11
-14 -11 -8 0 -21 -8 -28 -19 -7 -10 -17 -19 -23 -21 -5 -1 -9 -6 -8 -11 2 -5
-7 -9 -19 -9 -12 0 -18 -3 -15 -6 8 -8 -36 -44 -53 -44 -6 0 -8 -4 -5 -10 3
-5 1 -10 -4 -10 -18 0 -12 -23 12 -53 63 -78 72 -90 70 -98 -2 -4 4 -6 12 -3
9 4 15 0 15 -9 0 -10 7 -13 20 -10 11 3 17 9 14 14 -2 5 7 11 21 15 14 3 25
10 25 15 0 19 23 8 56 -27 20 -20 41 -33 49 -30 9 3 12 0 8 -10 -3 -8 1 -14
11 -14 9 0 16 -5 16 -11 0 -6 6 -9 13 -6 6 2 18 -3 25 -12 11 -13 12 -13 7 -1
-6 13 -5 13 7 0 13 -15 31 -22 56 -23 6 0 12 -3 12 -6 0 -3 15 -7 33 -8 50 -4
57 -6 51 -15 -3 -4 0 -8 7 -8 7 0 9 -3 6 -6 -3 -4 -1 -16 5 -28 14 -25 18 -66
7 -66 -4 0 -6 -13 -4 -30 3 -23 0 -30 -13 -30 -12 0 -13 -3 -5 -8 7 -4 10 -17
6 -30 -3 -12 -9 -20 -13 -17 -4 2 -6 -7 -4 -20 1 -14 -2 -27 -7 -31 -5 -3 -7
-10 -4 -15 4 -5 1 -9 -5 -9 -6 0 -8 -4 -5 -10 3 -5 1 -19 -5 -30 -9 -16 -8
-22 5 -26 8 -3 13 -9 11 -13 -4 -6 30 -12 87 -14 9 -1 17 -5 17 -9 0 -5 9 -4
20 2 15 8 20 8 20 -2 0 -8 3 -9 8 -3 4 6 17 12 30 12 34 2 52 26 45 59 -3 16
-6 37 -7 47 0 9 -3 17 -6 17 -4 0 -6 10 -5 22 1 13 -2 28 -7 35 -6 7 -5 14 2
18 8 5 8 11 -1 21 -6 7 -9 21 -5 29 3 8 1 15 -4 15 -6 0 -10 5 -10 11 0 5 6 7
13 3 8 -5 8 -2 -2 9 -8 11 -9 17 -2 17 7 0 8 8 1 25 -6 17 -6 25 1 25 6 0 7 4
4 10 -7 12 44 62 56 54 5 -3 9 0 9 7 0 7 3 9 6 6 4 -3 18 3 32 14 17 13 28 16
32 8 4 -6 10 -10 14 -10 20 3 26 -1 26 -15 0 -8 5 -12 10 -9 6 3 10 -2 10 -11
0 -10 3 -14 7 -11 3 4 12 -1 19 -11 10 -12 13 -13 14 -3 0 7 6 11 15 7 8 -3
15 0 15 6 0 14 47 58 54 50 3 -3 6 2 6 11 0 9 6 16 13 14 6 -1 11 4 10 11 -2
6 2 12 7 12 6 0 2 10 -9 22 -11 11 -17 26 -14 32 3 6 3 8 -2 4 -11 -11 -36 12
-28 25 4 6 0 8 -10 4 -16 -6 -22 3 -18 26 1 5 -2 6 -7 3 -5 -3 -15 4 -22 15
-8 10 -22 19 -32 19 -10 0 -18 7 -18 15 0 14 12 19 33 16 4 0 7 4 7 10 0 5 4
8 9 4 5 -3 12 -1 16 4 3 6 12 8 20 4 9 -3 15 1 15 8 0 11 3 11 10 -1 5 -8 10
-10 10 -4 0 6 12 10 28 8 15 -1 32 -2 38 -3 7 -1 14 -11 18 -23 5 -19 8 -21
16 -8 9 13 10 13 10 0 1 -12 3 -11 11 3 6 10 15 14 22 10 8 -4 7 -1 -1 9 -10
13 -10 18 -1 24 8 4 9 3 5 -4 -4 -7 -2 -12 3 -12 6 0 11 5 11 11 0 5 3 8 8 6
11 -8 29 17 26 37 -1 10 -18 32 -37 50 -28 26 -32 33 -21 44 7 6 20 12 29 12
8 0 15 4 15 10 0 5 3 9 8 9 20 -3 33 2 27 11 -4 6 -3 10 2 9 32 -6 74 32 66
61 -3 11 -9 20 -14 20 -5 0 -9 9 -9 19 0 10 -7 21 -15 25 -8 3 -12 12 -9 21 3
8 1 15 -5 15 -6 0 -11 6 -11 13 -1 17 -40 65 -40 48 0 -11 -3 -11 -15 -1 -10
8 -15 9 -15 1 0 -6 -11 -13 -25 -17 -14 -3 -25 -10 -25 -15 0 -5 -7 -9 -15 -9
-8 0 -15 -5 -15 -11 0 -5 -4 -7 -10 -4 -5 3 -10 1 -10 -5 0 -6 -4 -9 -8 -6
-17 11 -4 -68 14 -81 16 -12 16 -14 -10 -38 -14 -13 -29 -24 -32 -24 -3 1 -17
-8 -30 -20 -13 -11 -25 -21 -27 -20 -9 3 -55 -26 -51 -32 3 -5 -1 -9 -9 -9 -8
0 -20 -7 -27 -15 -7 -8 -18 -15 -24 -15 -6 0 -4 5 4 10 10 7 11 10 2 10 -7 0
-15 -7 -18 -15 -6 -14 -8 -14 -18 1 -15 20 -19 121 -5 130 6 4 4 13 -7 25 -16
17 -16 19 0 25 13 5 15 9 5 15 -10 6 -10 11 0 23 8 9 9 16 3 16 -6 0 -8 19 -5
48 2 26 5 52 5 59 1 7 5 10 10 7 4 -3 8 0 8 6 0 6 4 9 9 6 5 -3 14 1 21 9 7 8
16 12 21 9 5 -3 9 0 9 7 0 7 3 10 6 6 3 -3 17 -2 30 3 16 6 27 5 36 -4 7 -7
32 -21 56 -31 23 -10 42 -24 42 -29 0 -6 5 -4 10 4 6 10 10 11 10 3 0 -19 35
19 51 55 8 18 18 32 23 32 4 0 6 6 3 14 -3 8 1 17 9 20 9 3 13 10 10 15 -4 5
-1 15 6 23 7 7 14 25 16 39 2 19 -3 28 -23 37 -14 7 -28 18 -31 26 -3 8 -11
13 -19 10 -7 -3 -20 2 -29 11 -9 9 -20 14 -25 11 -5 -3 -11 1 -15 9 -3 8 -12
15 -21 15 -9 0 -27 7 -40 16 -14 9 -25 13 -25 9 0 -3 -7 0 -15 9 -13 12 -21
13 -40 4 -13 -6 -22 -14 -20 -19 3 -4 2 -9 -2 -11 -12 -5 -83 -155 -83 -173 0
-10 -6 -15 -17 -13 -10 2 -17 10 -15 16 1 7 -2 12 -8 12 -5 0 -10 7 -10 15 0
8 -7 15 -16 15 -8 0 -13 4 -10 9 3 5 -1 11 -9 15 -8 3 -15 12 -15 21 0 8 -7
15 -16 15 -8 0 -12 5 -9 10 3 6 -2 10 -13 10 -10 0 -39 -19 -63 -42 -24 -24
-47 -42 -52 -40 -4 1 -12 -9 -19 -23 -6 -13 -14 -22 -18 -20 -18 11 -17 -25 0
-40 11 -10 17 -22 13 -28 -3 -5 -2 -7 4 -4 5 3 17 -7 27 -24 9 -16 22 -27 27
-24 5 4 9 0 9 -8 0 -8 7 -17 15 -21 8 -3 15 -1 15 4 0 6 7 10 17 10 9 0 13 3
10 7 -4 3 2 13 14 21 19 13 23 12 52 -20 32 -34 34 -39 40 -78 2 -11 6 -23 10
-26 4 -4 2 -13 -4 -21 -9 -9 -8 -13 0 -13 13 0 11 -19 -4 -36 -6 -7 -14 -8
-21 -3 -6 5 -15 5 -19 1 -5 -4 -5 -2 -2 5 7 11 -59 59 -75 55 -5 -1 -8 5 -8
14 0 8 -4 12 -10 9 -5 -3 -10 -1 -10 4 0 6 -4 10 -9 9 -5 -2 -9 2 -9 7 -1 6
-10 12 -22 15 -12 3 -20 9 -18 14 3 9 -40 31 -54 28 -5 -1 -8 5 -8 13 0 8 -7
15 -15 15 -8 0 -19 9 -25 20 -6 11 -18 20 -26 20 -8 0 -12 5 -9 10 3 6 1 10
-5 10 -6 0 -9 4 -6 8 3 5 -4 15 -15 22 -10 8 -19 22 -19 32 0 10 -4 18 -10 18
-5 0 -10 9 -10 20 0 20 14 27 24 11 3 -4 16 -8 28 -7 13 1 32 -5 42 -13 11 -9
16 -10 12 -3 -8 14 3 16 24 2 17 -10 50 14 50 37 0 8 5 11 12 7 7 -4 8 -3 4 5
-4 6 -2 19 6 28 9 12 9 15 1 9 -7 -4 -13 -2 -13 3 0 6 3 11 8 11 4 0 7 10 8
23 1 40 9 72 19 79 6 5 6 8 -2 8 -7 0 -9 9 -6 23 3 12 3 19 -2 15 -4 -4 -14
-1 -22 7 -8 8 -22 15 -31 16 -9 1 -30 2 -47 3 -16 0 -32 4 -35 7 -3 4 -21 8
-40 10 -19 2 -41 8 -49 13 -12 9 -13 8 -6 -4 8 -13 6 -13 -8 -2 -9 8 -20 11
-26 8 -5 -3 -11 -1 -13 5 -2 6 -13 2 -27 -10z m-2 -257 c6 4 11 3 11 -3 0 -6
7 -8 15 -5 11 5 13 2 9 -10 -4 -11 -2 -16 7 -14 8 2 13 -3 11 -10 -1 -7 7 -26
18 -42 11 -15 20 -33 20 -39 0 -6 7 -11 16 -11 8 0 13 -4 9 -9 -7 -12 35 -52
46 -45 5 3 6 -2 3 -10 -4 -10 -1 -16 8 -16 7 0 20 -9 28 -19 7 -11 17 -18 21
-16 4 3 9 -2 13 -10 3 -8 12 -15 21 -15 8 0 15 -4 15 -10 0 -5 7 -10 16 -10 8
0 13 -4 9 -9 -5 -9 32 -27 48 -23 5 1 6 -1 3 -6 -3 -5 10 -18 29 -28 19 -10
35 -21 35 -25 0 -7 39 -22 53 -20 4 1 6 -2 5 -6 -2 -5 8 -19 21 -32 13 -13 19
-26 15 -30 -11 -7 -11 -47 -1 -57 3 -4 3 -12 -1 -18 -6 -10 -8 -15 -11 -34 0
-5 -8 -9 -16 -9 -8 0 -12 4 -9 8 2 4 -4 14 -14 21 -19 13 -22 18 -22 39 0 5
-4 7 -10 4 -5 -3 -10 0 -10 8 0 7 -11 19 -25 25 -23 11 -29 8 -66 -28 -23 -22
-46 -40 -51 -40 -5 0 -7 -4 -4 -9 5 -8 -21 -26 -34 -23 -3 0 -7 -9 -7 -20 -2
-27 25 -80 37 -73 6 4 10 0 10 -7 0 -19 57 -70 65 -58 4 6 11 8 16 4 5 -3 8 0
7 6 -2 7 5 14 15 15 9 2 17 -1 17 -6 0 -5 7 -9 16 -9 8 0 12 -4 9 -10 -3 -5 0
-10 8 -10 7 0 14 -7 14 -15 0 -8 -4 -12 -8 -9 -4 2 -10 -4 -13 -13 -9 -27 -55
-77 -74 -79 -9 -2 -23 3 -31 9 -12 10 -13 9 -7 -3 5 -8 -6 1 -25 20 -18 19
-37 34 -42 32 -4 -1 -6 2 -2 8 3 5 1 10 -6 10 -7 0 -10 3 -7 6 4 3 -8 21 -25
39 -50 54 -56 62 -50 69 4 3 -2 6 -12 6 -10 0 -16 3 -12 6 3 3 -3 15 -13 26
-15 17 -17 24 -7 39 12 19 27 25 27 11 0 -4 9 -8 20 -8 11 0 20 6 20 13 0 6 7
16 16 21 9 5 15 12 15 16 -1 3 6 21 16 39 27 53 25 70 -14 96 -19 12 -32 17
-27 9 4 -7 -3 -4 -16 7 -15 13 -21 15 -16 5 4 -9 2 -8 -7 3 -8 9 -22 17 -31
17 -9 0 -16 5 -16 10 0 17 -45 11 -62 -9 -9 -11 -14 -22 -11 -25 4 -3 1 -6 -6
-6 -7 0 -9 -4 -6 -10 3 -5 1 -10 -6 -10 -7 0 -9 -3 -6 -7 4 -3 1 -13 -7 -22
-8 -9 -15 -20 -15 -26 0 -5 -6 -11 -14 -13 -15 -3 -107 81 -107 98 0 5 -4 10
-9 10 -4 0 -8 20 -8 45 0 25 4 45 8 45 5 0 8 3 8 8 -4 26 4 32 50 32 28 0 53
5 56 10 4 6 10 8 15 5 4 -3 7 3 5 12 -1 10 2 26 7 36 5 9 5 17 1 17 -5 0 -9
28 -10 63 -1 34 -3 71 -4 82 -1 11 -1 27 0 35 1 12 3 13 10 1 5 -7 14 -10 20
-7z m63 -694 c14 -16 23 -30 20 -30 -4 -1 3 -9 16 -20 13 -11 21 -23 19 -27
-7 -11 19 -34 28 -25 4 4 5 2 3 -3 -4 -14 23 -75 34 -75 5 0 6 -4 3 -10 -3 -5
-1 -10 4 -10 6 0 11 -6 11 -14 0 -11 -8 -13 -27 -9 -16 3 -34 6 -40 6 -7 0
-13 4 -13 9 0 4 -3 7 -7 6 -5 -1 -18 3 -30 10 -13 7 -23 9 -23 5 0 -4 -5 0
-11 10 -5 9 -14 17 -20 17 -5 0 -26 16 -45 36 l-36 35 29 27 c15 14 32 25 36
24 5 -1 6 2 3 7 -4 5 -2 13 4 16 8 5 8 11 1 19 -10 12 -5 26 8 26 4 0 18 -13
33 -30z"/>
<path d="M1936 565 c-8 -22 -8 -21 10 -39 21 -22 56 -3 52 27 -4 28 -52 37
-62 12z"/>
<path d="M779 558 c-1 -7 -1 -30 -1 -51 1 -33 -1 -37 -13 -27 -8 7 -31 12 -52
12 -103 0 -115 -175 -13 -197 16 -3 39 -1 51 5 12 7 24 8 28 3 3 -5 17 -9 31
-8 l25 0 3 138 3 137 -31 0 c-17 0 -31 -6 -31 -12z m-4 -148 c8 -24 -18 -70
-40 -70 -20 0 -45 28 -45 51 0 10 9 28 20 39 24 24 54 14 65 -20z"/>
<path d="M235 547 c-136 -44 -114 -235 29 -254 22 -3 48 3 75 17 46 23 49 30
24 53 -16 13 -20 14 -37 1 -29 -21 -64 -17 -91 11 -32 31 -32 69 0 100 27 28
61 32 89 10 17 -13 22 -13 38 2 24 22 23 30 -10 47 -38 20 -82 25 -117 13z"/>
<path d="M1279 548 c-119 -32 -132 -191 -21 -240 48 -21 89 -20 139 4 25 12
28 18 28 63 0 47 -2 50 -27 53 -24 3 -28 0 -29 -22 -1 -14 -2 -32 -3 -38 -2
-23 -69 -21 -94 2 -65 61 21 167 94 115 19 -13 23 -12 44 10 l22 23 -28 15
c-42 21 -84 26 -125 15z"/>
<path d="M460 487 c-69 -23 -85 -122 -29 -173 33 -30 111 -26 143 6 82 83 -1
204 -114 167z m81 -80 c13 -47 -37 -87 -69 -55 -17 17 -15 64 3 82 21 21 57 6
66 -27z"/>
<path d="M942 489 c-70 -26 -88 -124 -31 -175 45 -41 175 -13 140 30 -10 11
-18 13 -31 6 -29 -15 -58 -12 -69 8 -8 16 -3 17 57 17 l67 0 -2 34 c-3 60 -71
102 -131 80z m68 -59 c10 -18 8 -20 -30 -20 -41 0 -49 7 -28 28 18 18 46 14
58 -8z"/>
<path d="M1511 484 c-87 -36 -68 -172 27 -190 35 -7 102 16 102 35 0 19 -32
28 -61 18 -21 -8 -31 -8 -43 2 -27 23 -18 27 49 26 46 -1 66 2 70 12 6 17 -17
74 -36 90 -23 18 -73 22 -108 7z m77 -56 c3 -15 -4 -18 -32 -18 -38 0 -44 8
-24 28 17 17 52 11 56 -10z"/>
<path d="M1780 484 c-17 -7 -28 -9 -25 -4 4 6 -9 10 -29 10 l-36 0 0 -98 0
-98 30 0 c31 0 34 5 32 66 -2 44 8 69 29 75 31 10 51 -13 49 -59 -3 -81 -3
-84 30 -82 l30 1 0 75 c0 109 -35 145 -110 114z"/>
<path d="M1960 491 c-25 -6 -26 -7 -25 -101 l0 -94 30 -1 30 0 2 97 c2 53 -1
99 -5 101 -4 2 -18 1 -32 -2z"/>
<path d="M2323 485 c-47 -20 -55 -61 -19 -92 15 -13 35 -23 45 -23 10 0 24 -7
31 -15 11 -13 8 -15 -19 -15 -18 0 -41 5 -51 10 -15 8 -21 6 -30 -9 -8 -16 -6
-22 9 -31 57 -30 135 -18 150 22 13 36 -3 62 -50 79 -24 9 -45 21 -47 28 -4
13 28 14 62 1 21 -8 26 -6 32 12 7 22 -9 38 -38 38 -9 0 -22 2 -30 5 -7 2 -27
-2 -45 -10z"/>
<path d="M2046 409 c1 -44 8 -86 14 -94 18 -22 59 -27 91 -11 21 11 29 11 29
2 0 -18 60 -14 61 4 1 21 1 152 0 168 -1 6 -14 12 -31 12 -29 0 -29 -1 -32
-61 -3 -65 -19 -88 -52 -76 -12 5 -16 20 -16 72 l0 65 -34 0 -33 0 3 -81z"/>
</g>
</svg>
