<?xml version="1.0" standalone="no"?>
<!DOCTYPE svg PUBLIC "-//W3C//DTD SVG 20010904//EN"
 "http://www.w3.org/TR/2001/REC-SVG-20010904/DTD/svg10.dtd">
<svg version="1.0" xmlns="http://www.w3.org/2000/svg"
 width="260.000000pt" height="260.000000pt" viewBox="0 0 260.000000 260.000000"
 preserveAspectRatio="xMidYMid meet">
<metadata>
Created by potrace 1.11, written by Peter Selinger 2001-2013
</metadata>
<g transform="translate(0.000000,260.000000) scale(0.100000,-0.100000)"
fill="#000000" stroke="none">
<path d="M922 2423 c-6 -3 -10 -9 -6 -14 5 -9 -10 -13 -30 -10 -5 1 -4 -4 3
-12 9 -12 8 -18 -5 -31 -9 -10 -14 -20 -11 -23 4 -3 2 -15 -4 -26 -7 -12 -7
-17 -1 -13 7 4 6 -6 0 -29 -6 -19 -15 -32 -21 -28 -5 3 -4 -3 1 -14 6 -11 7
-25 2 -32 -4 -8 -7 -24 -5 -37 1 -13 -2 -21 -6 -18 -5 3 -9 -2 -9 -10 0 -9 6
-16 13 -16 9 0 9 -2 0 -8 -8 -5 -9 -13 -3 -22 6 -8 10 -19 10 -25 -1 -5 -5 -2
-11 7 -6 11 -16 15 -26 11 -10 -4 -14 -2 -10 4 8 12 -11 12 -30 0 -8 -5 -13
-3 -13 5 0 9 -3 9 -10 -2 -9 -13 -11 -13 -20 0 -8 12 -10 12 -10 1 0 -11 -3
-11 -17 0 -9 8 -14 9 -10 3 4 -7 0 -14 -8 -18 -8 -3 -15 -2 -15 2 0 4 -9 8
-20 8 -11 0 -20 -3 -20 -6 0 -3 -21 -4 -47 -4 -27 1 -56 -3 -67 -8 -13 -7 -16
-7 -12 0 4 7 -8 9 -35 6 -47 -6 -90 -39 -81 -63 4 -10 1 -12 -9 -6 -12 8 -12
6 0 -8 7 -9 11 -25 8 -36 -2 -10 -1 -25 4 -32 5 -8 3 -17 -4 -21 -8 -5 -5 -8
8 -8 16 0 17 -2 6 -9 -21 -14 -23 -41 -3 -34 14 5 14 2 -2 -16 -18 -20 -18
-21 -2 -15 16 6 17 4 8 -13 -8 -15 -8 -23 1 -33 7 -7 7 -10 1 -7 -6 3 -11 0
-11 -8 0 -8 4 -12 8 -9 4 2 10 0 14 -6 3 -5 1 -10 -5 -10 -6 0 -9 -4 -6 -9 9
-14 -20 -21 -34 -8 -10 9 -11 9 -6 0 4 -7 2 -13 -3 -13 -6 0 -11 4 -11 10 0
13 -31 1 -51 -20 -12 -12 -14 -22 -7 -33 6 -12 3 -20 -12 -29 -11 -7 -20 -16
-20 -21 0 -4 4 -6 8 -3 5 3 4 -10 -2 -29 -6 -18 -13 -32 -17 -30 -3 3 -5 -7
-3 -20 1 -14 -3 -25 -9 -25 -8 0 -8 -3 0 -11 13 -13 6 -42 -8 -33 -15 9 -10
-2 14 -29 15 -18 29 -25 45 -22 13 2 20 0 17 -6 -4 -5 5 -9 19 -9 13 0 26 -6
29 -12 3 -10 9 -10 27 0 12 8 19 9 15 3 -3 -6 1 -11 9 -11 9 0 16 -5 16 -11 0
-5 4 -7 10 -4 6 3 10 1 10 -4 0 -6 8 -3 18 7 11 9 17 20 15 25 -2 4 3 7 11 7
9 0 13 6 10 14 -3 8 -1 17 5 21 6 3 11 12 11 18 0 7 -4 6 -11 -3 -9 -12 -10
-12 -5 3 3 10 6 21 6 23 0 3 6 2 13 -2 7 -5 7 -2 -2 10 -12 15 -12 17 0 14 8
-2 13 3 11 11 -3 12 -1 12 14 0 12 -9 15 -9 10 -1 -9 15 -7 15 32 1 18 -6 30
-14 28 -18 -3 -4 7 -16 21 -27 15 -10 32 -25 39 -32 7 -6 18 -12 24 -12 6 0 8
-4 5 -10 -6 -9 8 -14 28 -11 4 0 7 -5 7 -13 0 -8 5 -18 12 -22 7 -5 8 -3 3 7
-8 12 -6 12 8 0 9 -7 17 -19 17 -26 0 -8 6 -15 12 -17 7 -3 2 -7 -10 -10 -13
-4 -22 -2 -22 5 0 6 -7 2 -16 -9 -8 -10 -12 -12 -9 -4 4 8 -5 2 -20 -15 -14
-16 -24 -23 -20 -15 4 8 -2 5 -13 -7 -11 -12 -23 -19 -27 -15 -5 4 -5 -1 -1
-12 5 -14 2 -17 -9 -12 -8 3 -15 0 -15 -6 0 -6 -3 -9 -6 -5 -9 9 -44 -25 -37
-36 3 -6 1 -7 -6 -3 -7 5 -20 -1 -30 -13 -10 -11 -21 -18 -25 -14 -3 3 -6 1
-6 -6 0 -7 -5 -9 -12 -5 -6 4 -8 3 -5 -3 4 -6 0 -13 -8 -17 -18 -6 -20 -46 -3
-46 6 0 8 -3 4 -7 -3 -4 4 -13 16 -21 16 -9 17 -12 4 -7 -16 5 -17 3 -6 -10 7
-8 16 -12 21 -9 5 3 9 -2 9 -10 0 -9 4 -16 9 -16 5 0 13 -9 16 -20 3 -11 12
-20 20 -20 7 0 19 -13 26 -29 7 -16 17 -27 21 -25 4 3 8 0 8 -6 0 -6 5 -8 10
-5 6 3 10 2 10 -4 0 -5 9 -9 20 -8 11 1 20 8 20 16 0 8 3 11 6 8 4 -4 18 6 32
21 13 15 21 20 17 12 -5 -8 2 -5 14 8 25 26 40 30 20 5 -8 -9 -9 -14 -3 -10
14 8 57 -27 46 -37 -4 -4 -2 -7 3 -6 21 5 36 0 30 -10 -6 -9 8 -14 28 -11 5 1
6 -2 4 -6 -3 -5 1 -13 8 -20 11 -10 15 -10 18 0 3 7 6 5 6 -5 1 -9 6 -20 13
-24 7 -5 9 -2 4 7 -4 8 2 3 13 -10 13 -14 21 -18 21 -10 1 9 4 8 11 -3 5 -10
17 -18 24 -18 8 0 15 -6 15 -12 0 -9 3 -8 10 2 8 12 10 12 16 -4 5 -12 9 -14
14 -6 5 8 11 8 21 -2 13 -12 34 -19 69 -22 8 0 18 -5 22 -11 5 -6 8 -5 8 3 0
9 5 10 18 3 9 -5 22 -11 27 -13 6 -1 9 -6 8 -10 -2 -4 5 -4 14 -1 11 4 14 3 9
-5 -4 -7 -2 -12 4 -12 6 0 9 -4 5 -9 -3 -5 2 -17 11 -25 8 -9 12 -16 7 -16 -4
0 1 -7 11 -15 18 -14 18 -15 2 -15 -9 0 -14 -5 -11 -10 4 -6 11 -7 17 -4 7 4
8 2 4 -4 -4 -7 -15 -12 -24 -12 -10 0 -13 -3 -6 -8 11 -8 14 -52 3 -52 -4 0
-10 -7 -13 -16 -4 -9 -2 -13 5 -8 8 4 7 0 0 -15 -7 -11 -8 -21 -4 -21 4 0 1
-5 -7 -10 -13 -9 -13 -11 0 -20 12 -8 12 -10 -5 -10 -17 0 -17 -2 -5 -10 14
-9 7 -15 -14 -11 -5 1 -4 -5 4 -13 9 -12 9 -16 1 -16 -7 0 -9 -4 -6 -10 3 -5
1 -10 -5 -10 -6 0 -8 -5 -5 -10 4 -6 1 -17 -5 -25 -6 -8 -9 -18 -6 -24 4 -5
-1 -16 -9 -24 -17 -18 -20 -37 -5 -37 6 0 9 -3 9 -7 -3 -20 2 -34 11 -28 5 3
10 2 10 -3 0 -5 9 -12 20 -15 11 -3 18 -2 16 2 -3 4 4 7 14 7 10 0 17 -3 14
-7 -2 -4 5 -9 16 -12 12 -3 18 -1 14 5 -4 6 2 6 14 -1 27 -14 35 -14 26 2 -4
6 2 4 13 -6 16 -14 23 -15 29 -6 5 8 3 10 -6 4 -8 -5 -11 -4 -6 3 4 6 13 9 21
6 8 -4 13 -10 10 -14 -3 -5 4 -6 15 -3 11 3 23 9 26 14 8 14 26 11 19 -3 -4
-7 1 -4 9 6 9 11 19 17 22 13 9 -9 32 17 34 39 4 31 1 46 -8 40 -10 -6 -9 24
1 41 4 6 2 15 -4 19 -8 5 -9 3 -4 -6 5 -8 4 -11 -2 -7 -6 4 -9 22 -7 42 1 19
-2 37 -7 41 -5 3 -9 23 -9 45 0 22 -4 38 -8 35 -4 -2 -8 4 -8 15 0 11 5 18 13
15 7 -3 10 1 6 10 -3 7 -10 14 -17 14 -6 0 -4 5 4 10 12 8 12 10 -5 10 -14 0
-16 3 -7 8 7 5 14 18 17 31 2 13 0 19 -6 15 -13 -8 -7 29 6 38 6 5 5 8 -2 8
-7 0 -13 5 -13 11 0 5 5 7 12 3 7 -5 10 -1 7 12 -5 20 27 58 49 60 29 2 33 5
26 16 -4 6 -3 8 4 4 6 -3 13 -2 17 4 3 5 11 10 16 10 6 0 7 -5 3 -12 -4 -7 -3
-8 4 -4 7 4 12 15 12 24 0 15 2 15 10 2 8 -13 10 -12 10 4 0 15 3 16 14 7 11
-10 17 -8 25 6 6 10 11 12 11 6 0 -7 6 -13 13 -13 14 0 98 -86 91 -92 -2 -2 6
-4 16 -5 11 -1 22 2 25 8 3 5 -2 6 -12 3 -15 -5 -15 -4 -3 4 10 8 18 8 28 0
10 -9 14 -6 19 10 3 12 8 20 12 17 4 -2 20 12 36 30 15 19 31 33 34 31 3 -1
14 5 24 16 9 10 15 18 12 18 -3 0 -1 9 5 20 8 15 8 20 -1 20 -7 0 -10 3 -6 6
3 4 0 13 -8 20 -17 17 -29 18 -19 2 4 -7 3 -8 -5 -4 -6 4 -9 12 -6 17 7 11
-11 30 -45 47 -14 7 -17 10 -7 7 10 -3 15 -1 12 5 -3 6 -13 10 -21 10 -8 0
-14 6 -14 14 0 7 -9 16 -21 19 -12 3 -18 10 -15 16 4 6 -2 8 -13 6 -15 -3 -18
0 -14 13 3 9 3 14 -2 10 -4 -4 -15 -2 -23 5 -13 9 -14 9 -8 0 4 -8 2 -13 -4
-13 -7 0 -9 7 -6 17 4 9 1 20 -6 25 -9 6 -6 7 9 3 12 -3 24 -1 28 5 5 8 12 7
23 -2 9 -7 13 -8 9 -2 -8 14 47 39 63 29 6 -4 16 -2 23 3 7 5 20 8 29 7 10 -2
21 1 24 6 4 6 11 6 19 -1 10 -8 15 -8 21 1 5 8 3 9 -6 4 -9 -6 -11 -4 -5 5 6
10 15 6 34 -16 14 -17 22 -23 17 -14 -5 8 3 3 18 -12 28 -29 43 -37 30 -16 -5
8 -2 9 10 5 13 -5 19 -1 23 13 3 11 9 17 14 14 5 -3 9 0 9 6 0 6 4 9 8 6 5 -3
24 11 41 31 29 33 31 38 17 48 -9 7 -12 16 -8 20 4 5 1 5 -5 1 -8 -4 -13 -2
-13 5 0 7 -16 28 -36 46 -20 18 -33 33 -28 33 5 0 2 5 -6 10 -13 8 -13 11 -1
22 9 8 12 9 7 1 -4 -8 1 -11 14 -10 11 1 20 5 20 9 0 4 7 5 15 2 9 -4 15 0 15
9 0 9 8 13 25 12 14 -2 30 4 38 13 6 10 21 18 32 20 11 2 26 11 33 20 7 9 18
16 24 14 8 -2 7 2 -1 11 -9 12 -9 16 1 20 10 4 10 8 1 14 -6 4 -13 17 -15 28
-1 11 -14 30 -28 43 -14 13 -18 20 -10 16 18 -10 -14 43 -39 64 -13 11 -13 12
-1 6 12 -7 13 -5 3 8 -7 8 -11 18 -8 21 3 4 2 5 -1 2 -4 -2 -14 5 -24 17 -20
25 -57 31 -64 11 -3 -7 -12 -13 -19 -13 -8 0 -20 -7 -27 -15 -7 -8 -16 -12
-21 -10 -9 6 -43 -11 -73 -37 -10 -10 -22 -15 -27 -13 -9 6 -6 -21 3 -31 4 -3
4 -12 1 -20 -6 -16 21 -46 32 -36 4 4 5 0 3 -8 -3 -8 -1 -23 4 -34 7 -13 7
-16 -1 -12 -6 4 -11 0 -11 -9 0 -9 -4 -14 -10 -10 -5 3 -18 -3 -30 -15 -11
-11 -23 -20 -27 -20 -5 0 -15 -6 -23 -13 -9 -7 -22 -11 -29 -9 -8 3 -11 0 -8
-6 4 -5 -1 -16 -10 -23 -12 -10 -14 -10 -9 -1 4 6 2 12 -3 12 -6 0 -11 -7 -11
-16 0 -8 -4 -12 -10 -9 -5 3 -10 1 -10 -4 0 -6 -3 -10 -7 -10 -22 4 -33 -3
-33 -18 0 -14 -2 -15 -9 -4 -7 11 -11 9 -20 -8 -7 -12 -16 -19 -21 -16 -5 3
-13 -3 -19 -12 -9 -16 -12 -16 -21 -3 -8 13 -10 12 -10 -5 -1 -19 -1 -19 -11
-2 -6 9 -15 14 -21 11 -7 -4 -8 -2 -4 4 4 7 3 12 -3 12 -6 0 -8 6 -5 14 3 8 0
17 -6 21 -8 5 -5 12 7 22 10 8 13 12 7 9 -7 -3 -11 6 -12 24 0 17 5 30 11 30
8 0 8 3 -1 9 -7 4 -15 20 -16 34 -2 15 0 24 5 22 4 -3 10 -1 14 5 3 5 -2 10
-12 10 -15 0 -15 2 -4 9 17 11 23 39 10 47 -6 3 -5 12 3 22 11 13 11 15 -2 7
-12 -6 -13 -5 -2 6 15 16 16 33 1 23 -8 -4 -8 0 0 15 9 16 9 21 -1 21 -9 0 -9
3 2 10 13 9 13 10 0 10 -13 0 -13 1 0 10 13 9 13 10 0 10 -10 0 -11 3 -4 8 6
4 10 17 9 29 -1 13 1 21 3 18 3 -3 12 5 20 16 11 15 17 18 22 9 6 -9 10 -7 14
7 5 14 14 19 32 17 18 -2 24 2 20 11 -3 9 0 12 8 9 8 -3 17 -1 21 5 3 6 12 11
18 11 7 0 6 -4 -3 -10 -9 -6 -10 -10 -3 -10 6 0 14 4 18 10 3 5 26 -1 52 -15
26 -13 51 -21 55 -19 4 3 8 0 8 -6 0 -6 5 -8 10 -5 6 3 10 1 10 -5 0 -6 5 -8
10 -5 6 3 10 1 10 -5 0 -7 9 -9 23 -6 12 3 16 3 10 0 -21 -9 -15 -21 10 -18
52 8 62 12 62 25 1 8 6 13 13 12 6 -2 9 4 6 12 -4 8 -1 15 6 15 6 0 8 5 5 10
-3 6 -1 10 5 10 6 0 8 5 5 10 -3 6 -1 10 5 10 7 0 9 7 6 16 -3 8 -2 13 3 10 5
-3 11 8 15 25 4 20 10 28 18 23 8 -5 9 -2 5 9 -3 10 -2 17 3 17 6 0 9 6 7 13
-1 6 4 11 11 9 8 -1 11 2 7 8 -3 5 -1 18 4 29 8 14 8 21 -2 24 -9 4 -9 6 1 6
15 1 -23 41 -39 41 -5 0 -7 5 -4 10 3 6 -3 11 -14 11 -40 3 -46 5 -44 17 2 7
-4 9 -14 5 -11 -4 -14 -3 -9 5 5 8 2 10 -8 6 -9 -3 -16 -1 -16 6 0 6 -4 8 -10
5 -5 -3 -10 -1 -10 4 0 6 -11 11 -25 11 -14 0 -28 6 -31 14 -3 8 -12 17 -20
20 -9 3 -12 1 -9 -4 12 -19 -7 -10 -27 13 -11 12 -16 15 -12 7 7 -12 5 -13 -8
-3 -8 7 -19 9 -23 5 -5 -4 -5 -2 -2 5 4 6 -5 15 -23 22 -24 8 -29 7 -24 -2 5
-9 3 -9 -7 1 -15 14 -33 16 -24 3 3 -5 -6 -19 -21 -30 -14 -11 -23 -25 -19
-31 4 -6 1 -9 -5 -8 -7 2 -14 -6 -16 -16 -1 -10 -9 -23 -16 -27 -11 -7 -11 -9
1 -9 8 0 4 -8 -10 -21 -13 -11 -18 -18 -12 -14 9 4 11 1 7 -9 -3 -9 -11 -13
-16 -10 -6 4 -9 1 -6 -7 2 -7 -4 -22 -14 -33 -14 -15 -15 -22 -6 -28 10 -6 8
-8 -4 -8 -11 0 -15 -6 -11 -20 4 -14 -1 -22 -18 -29 -27 -10 -41 -1 -46 30 -2
12 -17 34 -34 50 -17 16 -28 33 -24 39 4 6 1 9 -6 8 -7 -2 -13 2 -14 9 0 14
-25 41 -25 28 0 -5 -7 1 -16 13 -11 17 -19 20 -28 13 -7 -6 -16 -8 -19 -4 -4
3 -7 1 -7 -5 0 -7 -7 -12 -15 -12 -8 0 -15 -7 -15 -15 0 -8 -7 -15 -15 -15 -8
0 -20 -9 -27 -20 -7 -11 -19 -20 -27 -20 -8 0 -11 -3 -8 -6 4 -4 -10 -20 -31
-36 -20 -17 -36 -35 -34 -40 1 -5 -2 -7 -7 -4 -5 3 -15 -2 -22 -11 -12 -14
-12 -16 0 -8 11 6 13 3 9 -13 -4 -16 1 -23 23 -33 25 -10 27 -14 17 -27 -7 -9
-8 -13 -3 -10 13 7 36 -17 27 -28 -4 -5 1 -3 10 4 14 12 16 10 11 -8 -5 -17
-2 -21 13 -20 32 4 37 1 24 -15 -13 -16 -5 -20 29 -16 7 2 10 -2 6 -8 -3 -6
-2 -11 3 -11 6 0 13 7 16 16 3 8 10 12 16 9 5 -3 10 -1 10 5 0 15 26 41 34 33
3 -4 6 -2 6 4 0 5 9 9 20 8 22 -1 54 -38 42 -49 -3 -4 1 -4 10 -1 13 5 16 2
13 -14 -2 -13 1 -21 10 -21 7 0 16 -7 19 -16 6 -15 4 -15 -11 -3 -16 12 -16
11 0 -8 11 -12 16 -27 12 -32 -3 -6 -2 -11 3 -11 5 0 9 -16 10 -36 1 -20 7
-43 13 -50 10 -12 9 -13 -5 -8 -18 7 -20 0 -6 -26 9 -16 7 -18 -12 -15 -11 3
-31 14 -43 25 -12 11 -27 20 -33 20 -7 0 -12 5 -12 11 0 5 -5 7 -10 4 -6 -3
-13 1 -16 9 -3 9 -12 16 -20 16 -8 0 -14 5 -14 10 0 6 -9 10 -19 10 -11 0 -23
5 -27 12 -5 7 -2 8 7 3 8 -5 10 -4 6 0 -4 5 -15 10 -23 11 -9 1 -23 12 -31 24
-10 15 -21 19 -35 14 -13 -4 -18 -2 -14 4 8 13 -28 34 -39 24 -5 -4 -5 -1 -1
6 4 7 0 15 -11 19 -10 4 -24 14 -31 22 -11 13 -12 13 -6 1 7 -13 5 -13 -9 -1
-9 7 -15 17 -12 21 3 4 -2 11 -11 14 -8 3 -12 2 -9 -4 3 -6 1 -10 -4 -10 -6 0
-11 9 -11 20 0 11 -4 20 -9 20 -11 0 -71 55 -71 65 0 4 -8 14 -17 22 -11 8
-12 11 -3 7 13 -7 13 -5 1 9 -7 9 -18 14 -24 10 -6 -4 -8 0 -4 10 3 10 2 17
-3 17 -6 0 -10 6 -10 14 0 8 -6 16 -12 19 -9 3 -7 10 6 23 11 11 15 12 9 4
-10 -13 -8 -16 6 -16 12 0 17 6 14 16 -4 13 -3 13 9 0 7 -8 33 -16 58 -18 24
-2 47 -8 51 -14 4 -7 9 -6 14 1 5 9 11 9 22 0 12 -10 16 -10 24 2 7 12 9 12 9
-1 0 -12 2 -13 9 -1 5 7 13 11 18 8 5 -3 10 -1 11 6 6 51 16 76 26 70 7 -4 6
-1 -1 7 -10 11 -10 17 0 29 9 12 9 13 0 7 -9 -5 -11 -2 -7 8 3 9 10 13 15 10
5 -3 6 2 3 10 -3 8 -2 21 2 28 12 19 14 39 3 32 -5 -3 -6 -10 -3 -16 5 -7 2
-8 -5 -4 -9 6 -8 13 5 27 9 10 14 27 11 39 -3 11 1 27 10 35 12 13 12 15 0 15
-8 0 -17 10 -20 21 -4 14 -11 20 -21 16 -9 -4 -15 -2 -13 4 1 6 -22 13 -53 16
-30 2 -58 9 -61 15 -4 6 -9 5 -12 -3 -4 -10 -6 -10 -6 -1 -1 6 -7 12 -15 12
-8 0 -17 -6 -19 -12 -4 -9 -6 -8 -6 3 -1 11 -10 15 -36 14 -20 -1 -38 2 -41 7
-3 4 -10 6 -15 3 -5 -4 -9 -2 -9 4 0 6 -11 6 -30 1 -19 -6 -29 -5 -27 2 1 6
-4 13 -12 16 -10 3 -11 0 -5 -9 6 -11 5 -12 -7 -3 -8 6 -20 9 -27 7z m613
-343 c3 -5 1 -10 -4 -10 -6 0 -11 5 -11 10 0 6 2 10 4 10 3 0 8 -4 11 -10z
m-645 -19 c0 7 10 3 26 -12 20 -19 24 -20 18 -5 -7 17 -6 18 18 2 13 -9 28
-13 33 -9 4 5 5 3 2 -3 -9 -15 10 -80 29 -99 8 -8 13 -19 10 -24 -6 -9 54 -67
66 -64 4 2 5 -3 2 -11 -3 -7 2 -19 11 -26 13 -11 15 -10 9 6 -5 18 -5 18 6 1
6 -9 8 -22 4 -29 -4 -7 -3 -8 5 -4 6 4 24 -6 42 -23 17 -17 37 -31 45 -31 8 0
14 -7 14 -17 0 -9 3 -14 6 -10 4 3 13 -1 21 -9 8 -8 19 -11 25 -8 7 4 8 2 4
-4 -4 -7 -1 -12 8 -12 8 0 20 -9 26 -20 6 -11 17 -20 25 -20 8 0 15 -5 15 -11
0 -5 5 -7 10 -4 6 3 13 -1 16 -10 6 -13 8 -14 15 -3 7 10 9 11 9 0 0 -8 5 -10
13 -6 9 6 9 4 -1 -8 -10 -13 -9 -16 8 -21 13 -3 18 -1 14 6 -3 7 4 1 15 -13
11 -14 21 -21 21 -16 0 5 8 0 18 -12 15 -17 21 -19 33 -9 7 7 11 8 7 3 -7 -8
14 -36 28 -36 3 0 15 -9 25 -21 9 -11 20 -20 23 -20 24 3 28 0 16 -14 -10 -12
-10 -15 1 -15 9 0 10 -3 3 -8 -6 -4 -10 -23 -8 -42 1 -19 -2 -42 -7 -52 -6
-11 -5 -19 3 -24 7 -5 8 -3 3 6 -5 9 -4 11 3 6 9 -5 8 -13 -3 -30 -8 -12 -12
-26 -8 -30 4 -4 0 -4 -10 0 -9 3 -14 11 -11 16 4 6 -1 6 -13 0 -17 -9 -19 -8
-18 11 3 25 -21 57 -42 57 -7 0 -13 7 -13 16 0 8 -4 13 -9 9 -6 -3 -8 4 -6 16
4 18 2 19 -12 7 -9 -7 -14 -8 -11 -3 3 6 0 16 -8 23 -8 7 -14 9 -14 3 0 -5
-11 -8 -25 -7 -13 2 -23 -2 -22 -8 1 -6 -6 -10 -15 -10 -9 1 -14 -4 -12 -11 3
-7 0 -16 -7 -21 -8 -5 -10 -3 -5 7 4 8 0 5 -8 -5 -9 -11 -16 -24 -16 -29 0 -4
-5 -5 -10 -2 -6 3 -13 -1 -16 -9 -3 -9 -12 -16 -20 -16 -8 0 -14 -5 -14 -11 0
-5 -5 -7 -10 -4 -6 4 -10 3 -9 -2 4 -21 -2 -32 -15 -27 -8 3 -17 0 -22 -7 -5
-8 -3 -10 7 -4 12 8 12 6 0 -8 -9 -12 -10 -17 -2 -17 7 0 9 -5 6 -10 -4 -6
-12 -8 -18 -4 -7 3 -4 -1 6 -9 9 -8 17 -20 18 -28 0 -10 2 -11 6 -1 8 19 22
14 16 -7 -3 -10 1 -22 8 -26 8 -6 10 -4 4 5 -5 9 -4 11 3 6 7 -4 12 -14 12
-22 0 -8 5 -12 10 -9 6 3 10 -4 10 -17 0 -18 2 -20 10 -8 8 13 10 12 10 -3 0
-10 5 -15 10 -12 6 3 10 -1 10 -9 0 -21 21 -31 31 -15 7 12 9 12 9 0 0 -11 4
-10 16 5 8 10 13 12 9 4 -4 -10 -2 -9 8 3 8 9 19 17 26 17 6 0 11 6 12 13 0
10 2 10 6 0 2 -7 11 -13 19 -13 9 0 12 -4 9 -10 -3 -5 -1 -10 5 -10 6 0 8 -5
4 -12 -5 -7 -1 -9 13 -6 24 6 23 0 -1 -54 -9 -21 -21 -38 -27 -38 -5 0 -7 -4
-4 -10 3 -5 -1 -10 -10 -10 -9 0 -13 -4 -10 -10 3 -5 1 -10 -5 -10 -6 0 -8 -4
-5 -10 3 -6 -1 -7 -9 -4 -9 3 -16 1 -16 -5 0 -6 -9 -11 -21 -11 -13 0 -18 -4
-13 -12 6 -10 4 -10 -7 -1 -7 7 -19 13 -27 13 -7 0 -29 17 -48 37 -23 24 -33
30 -29 17 3 -10 -1 -7 -8 9 -7 15 -16 24 -20 21 -4 -4 -7 0 -7 9 0 16 -12 22
-34 18 -5 -1 -3 6 5 15 8 10 10 15 4 12 -13 -6 -72 56 -67 71 2 6 -2 11 -8 11
-14 0 -34 20 -43 43 -3 9 -11 17 -17 17 -6 0 -8 5 -5 10 3 6 2 10 -3 10 -5 0
-14 12 -20 26 -10 20 -10 24 0 18 9 -6 9 -3 -1 9 -11 14 -11 17 0 17 11 0 11
2 -1 10 -12 8 -11 10 8 10 12 0 22 -5 22 -12 0 -6 3 -9 6 -5 3 3 17 2 30 -3
18 -7 24 -6 24 4 0 7 8 20 17 27 14 12 16 12 8 0 -5 -10 -4 -12 4 -7 7 5 9 16
5 28 -4 15 -3 18 7 13 9 -6 11 -2 6 14 -4 16 -2 21 8 17 14 -5 29 20 20 34 -3
4 2 11 11 14 10 4 14 14 11 26 -3 11 -1 18 4 14 5 -3 9 1 9 8 0 15 -20 48 -20
34 0 -6 -7 -1 -16 10 -8 10 -12 12 -8 4 7 -13 5 -13 -9 -2 -9 8 -21 11 -26 7
-7 -4 -8 1 -4 11 5 14 3 16 -11 11 -11 -4 -19 -1 -23 9 -5 13 -7 13 -14 2 -6
-9 -9 -9 -9 -1 0 7 -10 17 -21 24 -15 8 -19 8 -15 0 11 -17 -4 -13 -22 7 -10
10 -15 13 -12 7 3 -6 -3 -2 -12 8 -13 14 -18 15 -19 6 0 -11 -2 -11 -6 -1 -4
10 -8 10 -21 0 -13 -11 -15 -11 -8 2 4 8 0 6 -9 -5 -9 -11 -20 -19 -25 -18 -5
2 -14 -15 -20 -37 -7 -26 -15 -38 -22 -34 -7 5 -9 0 -6 -14 4 -13 0 -26 -11
-34 -15 -12 -15 -11 -1 7 14 19 14 19 -2 6 -11 -8 -16 -22 -14 -37 3 -14 1
-22 -5 -19 -5 4 -9 1 -9 -4 0 -21 -24 -10 -58 27 -20 20 -29 28 -21 17 13 -18
13 -19 -3 -7 -10 8 -20 22 -23 32 -3 10 -15 20 -26 23 -11 3 -23 15 -26 26 -3
11 -9 18 -14 15 -5 -3 -6 2 -3 10 3 9 2 16 -4 16 -14 0 -21 34 -10 54 6 11 5
16 -3 16 -6 0 -1 9 12 20 23 18 23 19 4 20 -11 1 -14 4 -7 7 6 2 10 9 6 14 -3
5 0 9 6 9 6 0 9 3 7 8 -3 4 1 13 9 19 9 9 15 10 20 2 4 -8 9 -7 15 2 6 10 9
11 9 2 0 -7 5 -13 11 -13 5 0 7 6 3 13 -6 9 -4 9 8 -1 13 -10 17 -10 20 0 4
10 8 10 19 1 10 -8 20 -9 29 -3 8 6 11 10 5 10 -5 1 1 6 14 11 17 7 22 15 18
30 -4 16 -2 19 10 15 12 -5 13 -4 5 7 -7 8 -9 17 -5 20 3 4 0 7 -8 7 -11 0
-11 2 1 10 13 9 13 10 0 10 -13 0 -13 1 0 10 12 8 12 10 1 10 -11 0 -11 3 0
17 9 11 10 14 2 9 -9 -5 -12 1 -9 24 2 17 0 33 -4 35 -4 3 -4 21 0 40 7 29 5
35 -9 36 -10 0 -11 2 -3 6 6 2 12 9 12 14 0 6 -6 7 -12 3 -10 -6 -10 -5 -1 8
7 8 9 19 5 24 -4 4 1 2 11 -5 14 -11 17 -11 17 0z m155 -151 c-3 -5 -1 -10 6
-10 7 0 10 -3 6 -6 -9 -9 -28 6 -22 17 4 5 8 9 11 9 3 0 2 -4 -1 -10z m523
-375 c-3 -3 -9 2 -12 12 -6 14 -5 15 5 6 7 -7 10 -15 7 -18z m-13 -235 c3 -5
1 -10 -4 -10 -6 0 -11 5 -11 10 0 6 2 10 4 10 3 0 8 -4 11 -10z m649 -78 c3
-5 -1 -9 -9 -9 -8 0 -12 4 -9 9 3 4 7 8 9 8 2 0 6 -4 9 -8z m-12 -66 c7 4 8 2
4 -5 -9 -13 -26 -5 -25 12 0 9 2 8 6 -1 2 -6 10 -9 15 -6z m-1212 -27 c0 -6 4
-7 10 -4 5 3 7 0 4 -9 -3 -8 3 -19 15 -26 12 -6 21 -16 21 -23 0 -7 14 -25 30
-40 17 -16 30 -33 30 -39 0 -6 8 -17 18 -25 11 -9 12 -12 2 -8 -8 4 -4 -3 10
-15 14 -12 18 -18 10 -14 -12 6 -13 5 -3 -8 7 -8 9 -19 5 -24 -4 -4 2 -2 12 6
13 10 17 10 12 3 -4 -8 -2 -13 4 -13 6 0 9 -4 5 -9 -3 -5 -1 -12 5 -16 6 -4 8
-10 5 -15 -3 -4 1 -10 9 -13 19 -8 9 -44 -12 -44 -9 0 -26 7 -36 16 -16 13
-18 13 -11 1 7 -13 6 -13 -7 -2 -13 10 -17 10 -21 0 -3 -8 -6 -6 -6 6 -1 12
-6 16 -16 12 -8 -3 -19 2 -24 12 -7 11 -10 12 -11 4 0 -10 -4 -10 -16 2 -8 9
-20 17 -25 17 -5 1 -13 2 -18 3 -5 0 -13 5 -18 10 -5 5 -2 6 6 1 9 -5 12 -4 7
3 -4 7 -14 12 -22 12 -10 0 -12 5 -8 13 5 7 0 6 -11 -3 -11 -9 -16 -10 -11 -2
4 6 3 12 -3 12 -5 0 -12 9 -16 19 -3 11 -13 22 -22 26 -14 5 -13 2 3 -17 16
-19 16 -21 1 -9 -26 21 -47 65 -38 80 5 7 11 12 15 12 19 -3 26 0 24 12 -2 6
5 11 14 11 10 -1 15 2 12 7 -3 5 1 12 10 15 10 4 13 16 10 40 -2 20 0 34 6 34
6 0 8 5 4 11 -4 8 0 8 15 0 11 -7 21 -16 21 -22z"/>
<path d="M1530 1801 c0 -6 4 -13 10 -16 6 -3 7 1 4 9 -7 18 -14 21 -14 7z"/>
<path d="M1755 750 c10 -11 20 -20 23 -20 3 0 -3 9 -13 20 -10 11 -20 20 -23
20 -3 0 3 -9 13 -20z"/>
</g>
</svg>
